<svg width="170" height="30" viewBox="0 0 170 30" fill="none" xmlns="http://www.w3.org/2000/svg">
<path d="M1.58496 9.6001H4.86496C5.96953 9.6001 6.86496 10.4955 6.86496 11.6001V29.0001H1.58496V9.6001Z" fill="#1E1743"/>
<path d="M26.4759 29.4001C26.0226 28.6001 25.6892 27.7734 25.4759 26.9201C25.2892 26.0401 25.1959 25.0534 25.1959 23.9601V17.5201C25.1959 14.8268 24.0759 13.4801 21.8359 13.4801C20.5026 13.4801 19.4226 14.0001 18.5959 15.0401C17.7959 16.0801 17.3959 17.4001 17.3959 19.0001V29.0001H12.1159V15.0401C12.1159 14.2401 12.0492 13.5468 11.9159 12.9601C11.8092 12.3734 11.5826 11.7201 11.2359 11.0001L15.9159 9.2001C16.1559 9.62676 16.3692 10.1334 16.5559 10.7201C16.7692 11.3068 16.8892 11.8134 16.9159 12.2401C17.6892 11.3334 18.6359 10.6001 19.7559 10.0401C20.9026 9.4801 22.1159 9.2001 23.3959 9.2001C25.8759 9.2001 27.6759 9.9201 28.7959 11.3601C29.9159 12.7734 30.4759 14.8268 30.4759 17.5201V23.8401C30.4759 25.3068 30.7426 26.5734 31.2759 27.6401L26.4759 29.4001Z" fill="#1E1743"/>
<path d="M44.8075 29.4001C41.4475 29.4001 38.8208 28.5068 36.9275 26.7201C35.0341 24.9334 34.0875 22.4668 34.0875 19.3201C34.0875 16.1468 35.0208 13.6668 36.8875 11.8801C38.7541 10.0934 41.3275 9.2001 44.6075 9.2001C46.1275 9.2001 47.5408 9.45343 48.8475 9.9601C50.1541 10.4401 51.2075 11.0801 52.0075 11.8801L50.2075 15.3601C48.6608 14.1068 46.8741 13.4801 44.8475 13.4801C43.1675 13.4801 41.8475 13.9601 40.8875 14.9201C39.9275 15.8801 39.4475 17.3468 39.4475 19.3201C39.4475 21.2668 39.9275 22.7201 40.8875 23.6801C41.8741 24.6401 43.2341 25.1201 44.9675 25.1201C45.9541 25.1201 46.8341 24.9734 47.6075 24.6801C48.4075 24.3601 49.1675 23.8534 49.8875 23.1601L52.6475 26.0401C51.7675 27.0801 50.6341 27.9068 49.2475 28.5201C47.8608 29.1068 46.3808 29.4001 44.8075 29.4001Z" fill="#1E1743"/>
<path d="M64.799 29.4001C61.599 29.4001 59.0657 28.5068 57.199 26.7201C55.359 24.9334 54.439 22.5068 54.439 19.4401C54.439 17.4401 54.8124 15.6668 55.559 14.1201C56.3057 12.5734 57.4124 11.3734 58.879 10.5201C60.3457 9.6401 62.119 9.2001 64.199 9.2001C66.2257 9.2001 67.9857 9.62676 69.479 10.4801C70.9724 11.3068 72.1057 12.4534 72.879 13.9201C73.6524 15.3601 74.039 16.9734 74.039 18.7601C74.039 19.6401 73.7457 20.3201 73.159 20.8001C72.599 21.2534 71.8124 21.4801 70.799 21.4801H59.679C59.679 22.5734 60.1457 23.4534 61.079 24.1201C62.039 24.7868 63.279 25.1201 64.799 25.1201C66.0524 25.1201 67.1057 24.9468 67.959 24.6001C68.839 24.2268 69.6124 23.7068 70.279 23.0401L72.919 25.8401C72.039 26.9601 70.9057 27.8401 69.519 28.4801C68.1324 29.0934 66.559 29.4001 64.799 29.4001ZM68.799 17.3601C68.799 16.1868 68.359 15.2401 67.479 14.5201C66.6257 13.7734 65.5324 13.4001 64.199 13.4001C62.919 13.4001 61.839 13.7734 60.959 14.5201C60.1057 15.2401 59.679 16.1868 59.679 17.3601H68.799Z" fill="#1E1743"/>
<path d="M92.0618 29.4001C91.6085 28.6001 91.2752 27.7734 91.0618 26.9201C90.8752 26.0401 90.7818 25.0534 90.7818 23.9601V17.5201C90.7818 14.8268 89.6618 13.4801 87.4218 13.4801C86.0885 13.4801 85.0085 14.0001 84.1818 15.0401C83.3818 16.0801 82.9818 17.4001 82.9818 19.0001V29.0001H77.7018V15.0401C77.7018 14.2401 77.6352 13.5468 77.5018 12.9601C77.3952 12.3734 77.1685 11.7201 76.8218 11.0001L81.5018 9.2001C81.7418 9.62676 81.9552 10.1334 82.1418 10.7201C82.3552 11.3068 82.4752 11.8134 82.5018 12.2401C83.2752 11.3334 84.2218 10.6001 85.3418 10.0401C86.4885 9.4801 87.7018 9.2001 88.9818 9.2001C91.4618 9.2001 93.2618 9.9201 94.3818 11.3601C95.5018 12.7734 96.0618 14.8268 96.0618 17.5201V23.8401C96.0618 25.3068 96.3285 26.5734 96.8618 27.6401L92.0618 29.4001Z" fill="#1E1743"/>
<path d="M108.673 29.3601C106.78 29.3601 105.327 28.8401 104.313 27.8001C103.327 26.7601 102.833 25.2668 102.833 23.3201V13.8401H99.2734L100.393 9.6001H102.913V5.5601L108.033 3.2001V9.6001H113.233L112.193 13.8401H108.113V23.4401C108.113 24.0534 108.247 24.4934 108.513 24.7601C108.78 25.0268 109.193 25.1601 109.753 25.1601C110.42 25.1601 111.02 25.0268 111.553 24.7601L112.793 28.5601C112.34 28.7734 111.713 28.9601 110.913 29.1201C110.14 29.2801 109.393 29.3601 108.673 29.3601Z" fill="#1E1743"/>
<path d="M119.85 7.4001C118.81 7.4001 117.943 7.0801 117.25 6.4401C116.583 5.8001 116.25 4.98677 116.25 4.0001C116.25 3.01343 116.583 2.2001 117.25 1.5601C117.943 0.920098 118.81 0.600098 119.85 0.600098C120.89 0.600098 121.743 0.920098 122.41 1.5601C123.103 2.2001 123.45 3.01343 123.45 4.0001C123.45 4.98677 123.103 5.8001 122.41 6.4401C121.743 7.0801 120.89 7.4001 119.85 7.4001ZM117.21 9.6001H120.49C121.595 9.6001 122.49 10.4955 122.49 11.6001V29.0001H117.21V9.6001Z" fill="#1E1743"/>
<path d="M142.101 29.4001C141.648 28.6001 141.314 27.7734 141.101 26.9201C140.914 26.0401 140.821 25.0534 140.821 23.9601V17.5201C140.821 14.8268 139.701 13.4801 137.461 13.4801C136.128 13.4801 135.048 14.0001 134.221 15.0401C133.421 16.0801 133.021 17.4001 133.021 19.0001V29.0001H127.741V15.0401C127.741 14.2401 127.674 13.5468 127.541 12.9601C127.434 12.3734 127.208 11.7201 126.861 11.0001L131.541 9.2001C131.781 9.62676 131.994 10.1334 132.181 10.7201C132.394 11.3068 132.514 11.8134 132.541 12.2401C133.314 11.3334 134.261 10.6001 135.381 10.0401C136.528 9.4801 137.741 9.2001 139.021 9.2001C141.501 9.2001 143.301 9.9201 144.421 11.3601C145.541 12.7734 146.101 14.8268 146.101 17.5201V23.8401C146.101 25.3068 146.368 26.5734 146.901 27.6401L142.101 29.4001Z" fill="#1E1743"/>
<path d="M159.672 29.4401C157.672 29.4401 155.912 29.0268 154.392 28.2001C152.899 27.3468 151.739 26.1601 150.912 24.6401C150.112 23.0934 149.712 21.3201 149.712 19.3201C149.712 17.3201 150.112 15.5601 150.912 14.0401C151.739 12.4934 152.899 11.3068 154.392 10.4801C155.912 9.62676 157.672 9.2001 159.672 9.2001C161.672 9.2001 163.419 9.62676 164.912 10.4801C166.432 11.3068 167.592 12.4934 168.392 14.0401C169.219 15.5601 169.632 17.3201 169.632 19.3201C169.632 21.3201 169.219 23.0934 168.392 24.6401C167.592 26.1601 166.432 27.3468 164.912 28.2001C163.419 29.0268 161.672 29.4401 159.672 29.4401ZM159.672 25.1601C161.192 25.1601 162.339 24.6534 163.112 23.6401C163.886 22.6001 164.272 21.1601 164.272 19.3201C164.272 17.4801 163.886 16.0534 163.112 15.0401C162.339 14.0001 161.192 13.4801 159.672 13.4801C158.152 13.4801 157.006 14.0001 156.232 15.0401C155.459 16.0534 155.072 17.4801 155.072 19.3201C155.072 21.1601 155.459 22.6001 156.232 23.6401C157.006 24.6534 158.152 25.1601 159.672 25.1601Z" fill="#1E1743"/>
<path d="M1.625 6.4401C2.31833 7.0801 3.185 7.4001 4.225 7.4001C5.265 7.4001 6.11833 7.0801 6.785 6.4401C7.47833 5.8001 7.825 4.98677 7.825 4.0001C7.825 3.01343 7.47833 2.2001 6.785 1.5601C6.11833 0.920098 5.265 0.600098 4.225 0.600098C3.185 0.600098 2.31833 0.920098 1.625 1.5601C0.958333 2.2001 0.625 3.01343 0.625 4.0001C0.625 4.98677 0.958333 5.8001 1.625 6.4401Z" fill="#BF5AF2"/>
</svg>
