<svg width="14" height="55" viewBox="0 0 14 55" fill="none" xmlns="http://www.w3.org/2000/svg">
<path d="M1.86659 17.4296H8.24437C10.3921 17.4296 12.1333 19.1637 12.1333 21.3028V55H1.86659V17.4296Z" fill="#1E1743"/>
<path d="M1.94444 11.3099C3.29259 12.5493 4.97778 13.169 7 13.169C9.02222 13.169 10.6815 12.5493 11.9778 11.3099C13.3259 10.0704 14 8.49531 14 6.58451C14 4.67371 13.3259 3.09859 11.9778 1.85915C10.6815 0.619718 9.02222 0 7 0C4.97778 0 3.29259 0.619718 1.94444 1.85915C0.648148 3.09859 0 4.67371 0 6.58451C0 8.49531 0.648148 10.0704 1.94444 11.3099Z" fill="#BF5AF2"/>
</svg>
